<svg width="25" height="24" viewBox="0 0 25 24" fill="none" xmlns="http://www.w3.org/2000/svg">
<path d="M12.5 20.8999L17.45 15.9499C18.4289 14.9709 19.0955 13.7236 19.3656 12.3658C19.6356 11.0079 19.4969 9.60052 18.9671 8.32148C18.4373 7.04244 17.54 5.94923 16.3889 5.18009C15.2378 4.41095 13.8844 4.00043 12.5 4.00043C11.1156 4.00043 9.76222 4.41095 8.61109 5.18009C7.45996 5.94923 6.56275 7.04244 6.03292 8.32148C5.50308 9.60052 5.36442 11.0079 5.63445 12.3658C5.90449 13.7236 6.57111 14.9709 7.55 15.9499L12.5 20.8999ZM12.5 23.7279L6.136 17.3639C4.87734 16.1052 4.02019 14.5016 3.67293 12.7558C3.32567 11.0099 3.50391 9.20035 4.1851 7.55582C4.86629 5.91129 6.01984 4.50569 7.49988 3.51677C8.97992 2.52784 10.72 2 12.5 2C14.28 2 16.0201 2.52784 17.5001 3.51677C18.9802 4.50569 20.1337 5.91129 20.8149 7.55582C21.4961 9.20035 21.6743 11.0099 21.3271 12.7558C20.9798 14.5016 20.1227 16.1052 18.864 17.3639L12.5 23.7279ZM11.5 9.99992V6.99992H13.5V9.99992H16.5V11.9999H13.5V14.9999H11.5V11.9999H8.5V9.99992H11.5Z" fill="white"/>
</svg>