<svg width="22" height="23" viewBox="0 0 22 23" fill="none" xmlns="http://www.w3.org/2000/svg">
                  <g clip-path="url(#clip0_835_2097)">
                    <path d="M14.4375 1.44751C13.4713 1.44726 12.5185 1.67335 11.6554 2.10766C10.7923 2.54197 10.0429 3.17242 9.46734 3.94848C8.89177 4.72455 8.50599 5.62465 8.34093 6.57665C8.17587 7.52866 8.23611 8.50609 8.51682 9.43062L1.375 16.5725V20.6975H5.5L12.6418 13.5556C13.4929 13.814 14.3897 13.8859 15.2711 13.7664C16.1524 13.6468 16.9977 13.3387 17.7492 12.8629C18.5007 12.3871 19.1408 11.7549 19.6258 11.0094C20.1109 10.2639 20.4295 9.42253 20.56 8.54271C20.6905 7.66289 20.6298 6.76528 20.3819 5.91106C20.1341 5.05684 19.7051 4.26608 19.124 3.59269C18.5429 2.9193 17.8235 2.37909 17.0147 2.0089C16.206 1.63871 15.3269 1.44723 14.4375 1.44751ZM14.4375 12.4475C13.9641 12.4472 13.4934 12.3772 13.0404 12.2397L12.2519 12.0006L11.6695 12.5831L9.48248 14.7702L8.53469 13.8225L7.5625 14.7947L8.51036 15.7425L7.42005 16.8329L6.47219 15.885L5.5 16.8572L6.44786 17.805L4.93048 19.3225H2.75V17.142L9.48908 10.403L10.0715 9.82037L9.83276 9.03201C9.53891 8.06331 9.558 7.02662 9.88732 6.0694C10.2166 5.11217 10.8394 4.28317 11.6671 3.70031C12.4947 3.11745 13.4851 2.81041 14.4973 2.82288C15.5095 2.83534 16.492 3.16667 17.3051 3.76973C18.1181 4.3728 18.7203 5.21688 19.0259 6.18192C19.3316 7.14697 19.3251 8.18382 19.0075 9.14498C18.6899 10.1062 18.0773 10.9427 17.2568 11.5356C16.4363 12.1285 15.4498 12.4476 14.4375 12.4475Z" fill="#818181"/>
                    <path d="M15.125 8.32251C15.8844 8.32251 16.5 7.7069 16.5 6.94751C16.5 6.18812 15.8844 5.57251 15.125 5.57251C14.3656 5.57251 13.75 6.18812 13.75 6.94751C13.75 7.7069 14.3656 8.32251 15.125 8.32251Z" fill="#818181"/>
                  </g>
                  <defs>
                    <clipPath id="clip0_835_2097">
                      <rect width="22" height="22" fill="white" transform="translate(0 0.0725098)"/>
                    </clipPath>
                  </defs>
                </svg>