<svg width="25" height="24" viewBox="0 0 25 24" fill="none" xmlns="http://www.w3.org/2000/svg">
<g clip-path="url(#clip0_4279_9105)">
<path fill-rule="evenodd" clip-rule="evenodd" d="M7.69141 21.6309L7.46289 15.877L10.0508 15.7734C11.1562 15.9258 12.2754 16.4785 13.4004 17.125L15.4102 17.0449C16.3223 17.0645 16.8359 17.9668 15.9746 18.6074C15.291 19.1523 14.3594 19.1602 13.4023 19.1113C12.7441 19.1055 12.75 19.9902 13.4355 19.9648C13.6738 19.9746 13.9316 19.9082 14.1562 19.8984C15.3457 19.8496 16.3164 19.584 16.8789 18.6191L17.1523 17.9043L20.084 16.3027C21.5605 15.75 22.5547 17.1426 21.4961 18.2754C19.3926 19.9375 17.3555 21.4531 15.125 22.5898C13.5156 23.6582 11.8633 23.6914 10.1758 22.7871L7.69141 21.6309ZM6.30859 12.8633H24.2578C24.3906 12.8633 24.5 12.9746 24.5 13.1055V14.1621C24.5 14.293 24.3906 14.4043 24.2578 14.4043H6.30859C6.17578 14.4043 6.06641 14.2949 6.06641 14.1621V13.1055C6.06641 12.9727 6.17578 12.8633 6.30859 12.8633ZM15.9805 2.75781C20.8945 3.15039 25.0332 7.28125 24.4219 12.1445H6.14648C5.54297 7.25 9.69726 3.11328 14.6465 2.75195V1.95898H13.8652C13.7285 1.95898 13.6152 1.8457 13.6152 1.70898V0.814453C13.6152 0.677734 13.7266 0.564453 13.8652 0.564453H16.7402C16.877 0.564453 16.9902 0.677734 16.9902 0.814453V1.70898C16.9902 1.8457 16.877 1.95898 16.7402 1.95898H15.9805V2.75781ZM0.5 15.6797L6.66211 15.3555L6.93555 22.2402L0.773437 22.5625L0.5 15.6797Z" fill="black"/>
</g>
<defs>
<clipPath id="clip0_4279_9105">
<rect width="24" height="24" fill="white" transform="translate(0.5)"/>
</clipPath>
</defs>
</svg>