<svg width="25" height="25" viewBox="0 0 25 25" fill="none" xmlns="http://www.w3.org/2000/svg">
<g clip-path="url(#clip0_3490_26910)">
<path fill-rule="evenodd" clip-rule="evenodd" d="M18.468 2.50002C18.8659 2.50002 19.2652 2.49427 19.6624 2.52137C19.9922 2.54388 20.3221 2.59338 20.6481 2.72838C21.3832 3.03287 21.9672 3.61689 22.2717 4.35197C22.4067 4.6779 22.4562 5.00781 22.4787 5.33764C22.5058 5.73487 22.5 6.1341 22.5 6.53201C22.5 6.97066 22.5 7.34915 22.4787 7.66241C22.4562 7.99223 22.4067 8.32215 22.2717 8.64807C21.9672 9.38316 21.3832 9.96718 20.6481 10.2717C20.3221 10.4067 19.9922 10.4562 19.6624 10.4787C19.2652 10.5058 18.8659 10.5 18.468 10.5C18.0294 10.5 17.6509 10.5 17.3376 10.4787C17.0078 10.4562 16.6779 10.4067 16.352 10.2717C15.6169 9.96718 15.0329 9.38316 14.7284 8.64807C14.5934 8.32215 14.5439 7.99223 14.5214 7.66241C14.5 7.34915 14.5 6.97066 14.5 6.53201C14.5 6.1341 14.4943 5.73487 14.5214 5.33764C14.5439 5.00781 14.5934 4.6779 14.7284 4.35197C15.0329 3.61689 15.6169 3.03287 16.352 2.72838C16.6779 2.59338 17.0078 2.54388 17.3376 2.52137C17.6509 2.5 18.0294 2.50001 18.468 2.50002Z" fill="#FCC842"/>
<path fill-rule="evenodd" clip-rule="evenodd" d="M6.53201 2.50002C6.97066 2.50001 7.34915 2.5 7.66241 2.52137C7.99223 2.54388 8.32215 2.59338 8.64807 2.72838C9.38316 3.03287 9.96718 3.61689 10.2717 4.35197C10.4067 4.6779 10.4562 5.00781 10.4787 5.33764C10.5058 5.73487 10.5 6.1341 10.5 6.53201C10.5 6.97066 10.5 7.34915 10.4787 7.66241C10.4562 7.99223 10.4067 8.32215 10.2717 8.64807C9.96718 9.38316 9.38316 9.96718 8.64807 10.2717C8.32215 10.4067 7.99223 10.4562 7.66241 10.4787C7.34915 10.5 6.97066 10.5 6.53201 10.5C6.1341 10.5 5.73487 10.5058 5.33764 10.4787C5.00781 10.4562 4.6779 10.4067 4.35197 10.2717C3.61689 9.96718 3.03287 9.38316 2.72838 8.64807C2.59338 8.32215 2.54388 7.99223 2.52137 7.66241C2.5 7.34915 2.50001 6.97066 2.50002 6.53201C2.50002 6.1341 2.49427 5.73487 2.52137 5.33764C2.54388 5.00781 2.59338 4.6779 2.72838 4.35197C3.03287 3.61689 3.61689 3.03287 4.35197 2.72838C4.6779 2.59338 5.00781 2.54388 5.33764 2.52137C5.73487 2.49427 6.1341 2.50002 6.53201 2.50002Z" fill="#FCC842"/>
<path fill-rule="evenodd" clip-rule="evenodd" d="M6.46804 14.5C6.86595 14.5 7.26517 14.4943 7.66241 14.5214C7.99223 14.5439 8.32215 14.5934 8.64807 14.7284C9.38316 15.0329 9.96718 15.6169 10.2717 16.352C10.4067 16.6779 10.4562 17.0078 10.4787 17.3376C10.5 17.6509 10.5 18.0294 10.5 18.468C10.5 18.8659 10.5058 19.2652 10.4787 19.6624C10.4562 19.9922 10.4067 20.3221 10.2717 20.6481C9.96718 21.3832 9.38316 21.9672 8.64807 22.2717C8.32215 22.4067 7.99223 22.4562 7.66241 22.4787C7.34915 22.5 6.97066 22.5 6.53201 22.5C6.1341 22.5 5.73487 22.5058 5.33764 22.4787C5.00781 22.4562 4.6779 22.4067 4.35197 22.2717C3.61689 21.9672 3.03287 21.3832 2.72838 20.6481C2.59338 20.3221 2.54388 19.9922 2.52137 19.6624C2.49427 19.2652 2.50002 18.8659 2.50002 18.468C2.50001 18.0294 2.5 17.6509 2.52137 17.3376C2.54388 17.0078 2.59338 16.6779 2.72838 16.352C3.03287 15.6169 3.61689 15.0329 4.35197 14.7284C4.6779 14.5934 5.00781 14.5439 5.33764 14.5214C5.6509 14.5 6.02939 14.5 6.46804 14.5Z" fill="#FCC842"/>
<path fill-rule="evenodd" clip-rule="evenodd" d="M12.5 2.5C13.0523 2.5 13.5 2.94772 13.5 3.5V6.5C13.5 7.05228 13.0523 7.5 12.5 7.5C11.9477 7.5 11.5 7.05228 11.5 6.5V3.5C11.5 2.94772 11.9477 2.5 12.5 2.5Z" fill="#FCC842"/>
<path fill-rule="evenodd" clip-rule="evenodd" d="M19.5 18.5C19.5 19.0523 19.0523 19.5 18.5 19.5H15.5C14.9477 19.5 14.5 19.0523 14.5 18.5C14.5 17.9477 14.9477 17.5 15.5 17.5H18.5C19.0523 17.5 19.5 17.9477 19.5 18.5Z" fill="#FCC842"/>
<path fill-rule="evenodd" clip-rule="evenodd" d="M22.5 15.5C22.5 16.0523 22.0523 16.5 21.5 16.5H18.5C17.9477 16.5 17.5 16.0523 17.5 15.5C17.5 14.9477 17.9477 14.5 18.5 14.5H21.5C22.0523 14.5 22.5 14.9477 22.5 15.5Z" fill="#FCC842"/>
<path fill-rule="evenodd" clip-rule="evenodd" d="M10.5 12.5C10.5 13.0523 10.0523 13.5 9.5 13.5H3.5C2.94772 13.5 2.5 13.0523 2.5 12.5C2.5 11.9477 2.94772 11.5 3.5 11.5H9.5C10.0523 11.5 10.5 11.9477 10.5 12.5Z" fill="#FCC842"/>
<path fill-rule="evenodd" clip-rule="evenodd" d="M22.5 12.5C22.5 13.0523 22.0523 13.5 21.5 13.5H13.5C12.3954 13.5 11.5 12.6046 11.5 11.5V9.5C11.5 8.94771 11.9477 8.5 12.5 8.5C13.0523 8.5 13.5 8.94771 13.5 9.5V11.5H21.5C22.0523 11.5 22.5 11.9477 22.5 12.5Z" fill="#FCC842"/>
<path fill-rule="evenodd" clip-rule="evenodd" d="M14 21.5C14 22.0523 14.4477 22.5 15 22.5H20.5C21.6046 22.5 22.5 21.6046 22.5 20.5V18.5C22.5 17.9477 22.0523 17.5 21.5 17.5C20.9477 17.5 20.5 17.9477 20.5 18.5V20.5H15C14.4477 20.5 14 20.9477 14 21.5Z" fill="#FCC842"/>
<path fill-rule="evenodd" clip-rule="evenodd" d="M12.5 22.5C11.9477 22.5 11.5 22.0523 11.5 21.5V16.5C11.5 15.3954 12.3954 14.5 13.5 14.5H15.5C16.0523 14.5 16.5 14.9477 16.5 15.5C16.5 16.0523 16.0523 16.5 15.5 16.5H13.5V21.5C13.5 22.0523 13.0523 22.5 12.5 22.5Z" fill="#FCC842"/>
</g>
<defs>
<clipPath id="clip0_3490_26910">
<rect width="24" height="24" fill="white" transform="translate(0.5 0.5)"/>
</clipPath>
</defs>
</svg>