<svg width="25" height="24" viewBox="0 0 25 24" fill="none" xmlns="http://www.w3.org/2000/svg">
<g clip-path="url(#clip0_4279_9099)">
<path d="M19.5 20H5.5V21C5.5 21.2652 5.39464 21.5196 5.20711 21.7071C5.01957 21.8946 4.76522 22 4.5 22H3.5C3.23478 22 2.98043 21.8946 2.79289 21.7071C2.60536 21.5196 2.5 21.2652 2.5 21V12L5.013 5.298C5.15593 4.91669 5.41186 4.5881 5.74656 4.35615C6.08126 4.1242 6.47878 3.99995 6.886 4H18.114C18.5212 3.99995 18.9187 4.1242 19.2534 4.35615C19.5881 4.5881 19.8441 4.91669 19.987 5.298L22.5 12V21C22.5 21.2652 22.3946 21.5196 22.2071 21.7071C22.0196 21.8946 21.7652 22 21.5 22H20.5C20.2348 22 19.9804 21.8946 19.7929 21.7071C19.6054 21.5196 19.5 21.2652 19.5 21V20ZM4.636 12H20.364L18.114 6H6.886L4.636 12ZM7 17C7.39782 17 7.77936 16.842 8.06066 16.5607C8.34196 16.2794 8.5 15.8978 8.5 15.5C8.5 15.1022 8.34196 14.7206 8.06066 14.4393C7.77936 14.158 7.39782 14 7 14C6.60218 14 6.22064 14.158 5.93934 14.4393C5.65804 14.7206 5.5 15.1022 5.5 15.5C5.5 15.8978 5.65804 16.2794 5.93934 16.5607C6.22064 16.842 6.60218 17 7 17ZM18 17C18.3978 17 18.7794 16.842 19.0607 16.5607C19.342 16.2794 19.5 15.8978 19.5 15.5C19.5 15.1022 19.342 14.7206 19.0607 14.4393C18.7794 14.158 18.3978 14 18 14C17.6022 14 17.2206 14.158 16.9393 14.4393C16.658 14.7206 16.5 15.1022 16.5 15.5C16.5 15.8978 16.658 16.2794 16.9393 16.5607C17.2206 16.842 17.6022 17 18 17Z" fill="black"/>
</g>
<defs>
<clipPath id="clip0_4279_9099">
<rect width="24" height="24" fill="white" transform="translate(0.5)"/>
</clipPath>
</defs>
</svg>