<svg width="25" height="25" viewBox="0 0 25 25" fill="none" xmlns="http://www.w3.org/2000/svg">
<path d="M15.5 4.67847H5.5V20.6785H19.5V8.67847H15.5V4.67847ZM3.5 3.67047C3.5 3.12247 3.947 2.67847 4.499 2.67847H16.5L21.5 7.67847V21.6715C21.5009 21.8028 21.476 21.933 21.4266 22.0547C21.3772 22.1764 21.3043 22.2871 21.2121 22.3806C21.1199 22.4741 21.0101 22.5486 20.8892 22.5997C20.7682 22.6508 20.6383 22.6776 20.507 22.6785H4.493C4.23038 22.6766 3.97902 22.5716 3.79322 22.386C3.60742 22.2003 3.50209 21.9491 3.5 21.6865V3.67047ZM12.5 11.6785V8.67847L16.5 12.6785L12.5 16.6785V13.6785H8.5V11.6785H12.5Z" fill="#F45859"/>
</svg>