<svg width="32" height="33" viewBox="0 0 32 33" fill="none" xmlns="http://www.w3.org/2000/svg">
        <rect y="0.670349" width="32" height="32" rx="4" fill="white"/>
        <g clip-path="url(#clip0_2797_6112)">
          <path d="M20.2427 20.2463L16 24.489L11.7573 20.2463C10.9182 19.4072 10.3468 18.3381 10.1153 17.1742C9.88378 16.0104 10.0026 14.804 10.4567 13.7076C10.9109 12.6113 11.6799 11.6742 12.6666 11.0149C13.6533 10.3556 14.8133 10.0037 16 10.0037C17.1867 10.0037 18.3467 10.3556 19.3334 11.0149C20.3201 11.6742 21.0891 12.6113 21.5433 13.7076C21.9974 14.804 22.1162 16.0104 21.8847 17.1742C21.6532 18.3381 21.0818 19.4072 20.2427 20.2463ZM15.3333 15.337H13.3333V16.6703H15.3333V18.6703H16.6667V16.6703H18.6667V15.337H16.6667V13.337H15.3333V15.337Z" fill="#555457"/>
        </g>
        <defs>
          <clipPath id="clip0_2797_6112">
            <rect width="16" height="16" fill="white" transform="translate(8 8.67035)"/>
          </clipPath>
        </defs>
      </svg>