<svg width="20" height="21" viewBox="0 0 20 21" fill="none" xmlns="http://www.w3.org/2000/svg">
                  <g clip-path="url(#clip0_835_1885)">
                    <path d="M3.3335 15.0726H5.00016V16.7393H15.0002V3.40592H5.00016V5.07259H3.3335V2.57259C3.3335 2.35158 3.42129 2.13962 3.57757 1.98334C3.73385 1.82706 3.94582 1.73926 4.16683 1.73926H15.8335C16.0545 1.73926 16.2665 1.82706 16.4228 1.98334C16.579 2.13962 16.6668 2.35158 16.6668 2.57259V17.5726C16.6668 17.7936 16.579 18.0056 16.4228 18.1618C16.2665 18.3181 16.0545 18.4059 15.8335 18.4059H4.16683C3.94582 18.4059 3.73385 18.3181 3.57757 18.1618C3.42129 18.0056 3.3335 17.7936 3.3335 17.5726V15.0726ZM5.00016 9.23926H10.8335V10.9059H5.00016V13.4059L0.833496 10.0726L5.00016 6.73926V9.23926Z" fill="#818181"/>
                  </g>
                  <defs>
                    <clipPath id="clip0_835_1885">
                      <rect width="20" height="20" fill="white" transform="translate(0 0.0725098)"/>
                    </clipPath>
                  </defs>
                </svg>