<svg width="25" height="25" viewBox="0 0 25 25" fill="none" xmlns="http://www.w3.org/2000/svg">
              <path d="M6.16689 17.7992C7.01689 17.1492 7.96689 16.6367 9.01689 16.2617C10.0669 15.8867 11.1669 15.6992 12.3169 15.6992C13.4669 15.6992 14.5669 15.8867 15.6169 16.2617C16.6669 16.6367 17.6169 17.1492 18.4669 17.7992C19.0502 17.1159 19.5044 16.3409 19.8294 15.4742C20.1544 14.6076 20.3169 13.6826 20.3169 12.6992C20.3169 10.4826 19.5377 8.59505 17.9794 7.03672C16.4211 5.47839 14.5336 4.69922 12.3169 4.69922C10.1002 4.69922 8.21273 5.47839 6.65439 7.03672C5.09606 8.59505 4.31689 10.4826 4.31689 12.6992C4.31689 13.6826 4.47939 14.6076 4.80439 15.4742C5.12939 16.3409 5.58356 17.1159 6.16689 17.7992ZM12.3169 13.6992C11.3336 13.6992 10.5044 13.3617 9.82939 12.6867C9.15439 12.0117 8.81689 11.1826 8.81689 10.1992C8.81689 9.21589 9.15439 8.38672 9.82939 7.71172C10.5044 7.03672 11.3336 6.69922 12.3169 6.69922C13.3002 6.69922 14.1294 7.03672 14.8044 7.71172C15.4794 8.38672 15.8169 9.21589 15.8169 10.1992C15.8169 11.1826 15.4794 12.0117 14.8044 12.6867C14.1294 13.3617 13.3002 13.6992 12.3169 13.6992ZM12.3169 22.6992C10.9336 22.6992 9.63356 22.4367 8.41689 21.9117C7.20023 21.3867 6.14189 20.6742 5.24189 19.7742C4.34189 18.8742 3.62939 17.8159 3.10439 16.5992C2.57939 15.3826 2.31689 14.0826 2.31689 12.6992C2.31689 11.3159 2.57939 10.0159 3.10439 8.79922C3.62939 7.58255 4.34189 6.52422 5.24189 5.62422C6.14189 4.72422 7.20023 4.01172 8.41689 3.48672C9.63356 2.96172 10.9336 2.69922 12.3169 2.69922C13.7002 2.69922 15.0002 2.96172 16.2169 3.48672C17.4336 4.01172 18.4919 4.72422 19.3919 5.62422C20.2919 6.52422 21.0044 7.58255 21.5294 8.79922C22.0544 10.0159 22.3169 11.3159 22.3169 12.6992C22.3169 14.0826 22.0544 15.3826 21.5294 16.5992C21.0044 17.8159 20.2919 18.8742 19.3919 19.7742C18.4919 20.6742 17.4336 21.3867 16.2169 21.9117C15.0002 22.4367 13.7002 22.6992 12.3169 22.6992Z" fill="white"/>
            </svg>